<svg width="558" height="558" viewBox="0 0 558 558" fill="none" xmlns="http://www.w3.org/2000/svg">
<path d="M514.239 133.118L287.719 2.33661C282.323 -0.777078 275.677 -0.777078 270.281 2.33661L43.7617 133.118C38.367 136.233 35.043 141.989 35.043 148.219V409.781C35.043 416.011 38.367 421.767 43.7617 424.882L270.281 555.663C272.98 557.221 275.989 558 279 558C282.011 558 285.02 557.221 287.719 555.663L514.239 424.882C519.633 421.767 522.957 416.011 522.957 409.781V148.219C522.957 141.989 519.633 136.233 514.239 133.118ZM69.918 178.42L261.563 289.067V510.36L69.918 399.714V178.42ZM488.082 399.714L296.438 510.36V289.067L400.979 228.709C409.318 223.894 412.176 213.229 407.361 204.89C402.546 196.549 391.881 193.692 383.541 198.507L279 258.865L87.3555 148.219L279 37.5723L488.082 158.286V399.714Z" fill="black"/>
</svg>
