<svg width="1157" height="314" viewBox="0 0 1157 314" fill="none" xmlns="http://www.w3.org/2000/svg">
<path d="M1131.67 287.818V0H1156.36V287.818H1131.67Z" fill="black"/>
<path d="M1065.84 287.818L1052.19 267.346C1046.57 274.705 1039.55 280.66 1031.12 285.209C1022.69 289.625 1013.45 291.833 1003.42 291.833H997.196C988.899 291.833 981.072 290.294 973.712 287.216C966.353 284.005 959.93 279.656 954.444 274.17C948.958 268.684 944.609 262.261 941.398 254.902C938.321 247.543 936.782 239.715 936.782 231.419V229.412C936.782 221.116 938.321 213.288 941.398 205.929C944.609 198.569 948.958 192.147 954.444 186.66C959.93 181.174 966.353 176.893 973.712 173.815C981.072 170.604 988.899 168.998 997.196 168.998H1049.38V137.286C1049.38 132.335 1048.44 127.719 1046.57 123.437C1044.7 119.021 1042.15 115.208 1038.94 111.996C1035.73 108.785 1031.92 106.243 1027.5 104.369C1023.22 102.496 1018.6 101.559 1013.65 101.559H999.203C994.252 101.559 989.569 102.496 985.153 104.369C980.871 106.243 977.124 108.785 973.913 111.996C970.702 115.208 968.159 119.021 966.286 123.437C964.413 127.719 963.476 132.335 963.476 137.286V144.712L938.789 140.698V138.691C938.789 130.395 940.328 122.567 943.405 115.208C946.617 107.848 950.965 101.426 956.451 95.9395C961.937 90.4534 968.36 86.1716 975.72 83.094C983.079 79.8827 990.907 78.277 999.203 78.277H1013.65C1021.95 78.277 1029.78 79.8827 1037.14 83.094C1044.5 86.1716 1050.92 90.4534 1056.41 95.9395C1061.89 101.426 1066.17 107.848 1069.25 115.208C1072.46 122.567 1074.07 130.395 1074.07 138.691V287.818H1065.84ZM1049.38 188.266H997.196C992.245 188.266 987.561 189.203 983.146 191.076C978.864 192.949 975.117 195.559 971.906 198.904C968.695 202.115 966.152 205.929 964.279 210.344C962.406 214.626 961.469 219.242 961.469 224.193V232.824C961.469 237.775 962.406 242.458 964.279 246.874C966.152 251.155 968.695 254.902 971.906 258.113C975.117 261.325 978.864 263.867 983.146 265.74C987.561 267.614 992.245 268.55 997.196 268.55H1013.65C1018.6 268.55 1023.22 267.614 1027.5 265.74C1031.92 263.867 1035.73 261.325 1038.94 258.113C1042.15 254.902 1044.7 251.155 1046.57 246.874C1048.44 242.458 1049.38 237.775 1049.38 232.824V188.266Z" fill="black"/>
<path d="M879.178 287.818L865.529 266.945C859.91 274.572 852.885 280.66 844.455 285.209C836.025 289.625 826.792 291.833 816.757 291.833H810.535C802.239 291.833 794.411 290.294 787.052 287.216C779.692 284.005 773.27 279.656 767.784 274.17C762.298 268.684 757.949 262.261 754.737 254.902C751.66 247.543 750.121 239.715 750.121 231.419V138.691C750.121 130.395 751.66 122.567 754.737 115.208C757.949 107.848 762.298 101.426 767.784 95.9395C773.27 90.4534 779.692 86.1716 787.052 83.094C794.411 79.8827 802.239 78.277 810.535 78.277H816.757C825.99 78.277 834.553 80.1503 842.448 83.8969C850.342 87.6435 857.1 92.8619 862.72 99.5523V0H887.407V287.818H879.178ZM862.72 137.286C862.72 132.335 861.783 127.719 859.91 123.437C858.036 119.021 855.494 115.208 852.283 111.996C849.071 108.785 845.258 106.243 840.842 104.369C836.56 102.496 831.944 101.559 826.993 101.559H810.535C805.584 101.559 800.901 102.496 796.485 104.369C792.203 106.243 788.457 108.785 785.245 111.996C782.034 115.208 779.492 119.021 777.618 123.437C775.745 127.719 774.808 132.335 774.808 137.286V232.824C774.808 237.775 775.745 242.458 777.618 246.874C779.492 251.155 782.034 254.902 785.245 258.113C788.457 261.325 792.203 263.867 796.485 265.74C800.901 267.614 805.584 268.55 810.535 268.55H826.993C831.944 268.55 836.56 267.614 840.842 265.74C845.258 263.867 849.071 261.325 852.283 258.113C855.494 254.902 858.036 251.155 859.91 246.874C861.783 242.458 862.72 237.775 862.72 232.824V137.286Z" fill="black"/>
<path d="M700.746 231.419C700.746 239.715 699.141 247.543 695.929 254.902C692.852 262.261 688.57 268.684 683.084 274.17C677.598 279.656 671.175 284.005 663.816 287.216C656.456 290.294 648.628 291.833 640.332 291.833H623.874C615.578 291.833 607.751 290.294 600.391 287.216C593.032 284.005 586.609 279.656 581.123 274.17C575.637 268.684 571.288 262.261 568.077 254.902C564.999 247.543 563.46 239.715 563.46 231.419V138.691C563.46 130.395 564.999 122.567 568.077 115.208C571.288 107.848 575.637 101.426 581.123 95.9395C586.609 90.4534 593.032 86.1716 600.391 83.094C607.751 79.8827 615.578 78.277 623.874 78.277H640.332C648.628 78.277 656.456 79.8827 663.816 83.094C671.175 86.1716 677.598 90.4534 683.084 95.9395C688.57 101.426 692.852 107.848 695.929 115.208C699.141 122.567 700.746 130.395 700.746 138.691V231.419ZM676.059 137.286C676.059 132.335 675.122 127.719 673.249 123.437C671.376 119.021 668.833 115.208 665.622 111.996C662.411 108.785 658.597 106.243 654.181 104.369C649.9 102.496 645.283 101.559 640.332 101.559H623.874C618.923 101.559 614.24 102.496 609.825 104.369C605.543 106.243 601.796 108.785 598.585 111.996C595.373 115.208 592.831 119.021 590.958 123.437C589.084 127.719 588.148 132.335 588.148 137.286V232.824C588.148 237.775 589.084 242.458 590.958 246.874C592.831 251.155 595.373 254.902 598.585 258.113C601.796 261.325 605.543 263.867 609.825 265.74C614.24 267.614 618.923 268.55 623.874 268.55H640.332C645.283 268.55 649.9 267.614 654.181 265.74C658.597 263.867 662.411 261.325 665.622 258.113C668.833 254.902 671.376 251.155 673.249 246.874C675.122 242.458 676.059 237.775 676.059 232.824V137.286Z" fill="black"/>
<path d="M489.398 287.818V137.286C489.398 132.335 488.462 127.719 486.588 123.437C484.715 119.021 482.173 115.208 478.961 111.996C475.75 108.785 471.936 106.243 467.521 104.369C463.239 102.496 458.623 101.559 453.672 101.559H437.214C432.263 101.559 427.579 102.496 423.164 104.369C418.882 106.243 415.135 108.785 411.924 111.996C408.713 115.208 406.17 119.021 404.297 123.437C402.424 127.719 401.487 132.335 401.487 137.286V287.818H376.8V82.2912H385.029L398.477 103.165C404.096 95.5381 411.121 89.5168 419.551 85.1011C428.115 80.5517 437.414 78.277 447.45 78.277H453.672C461.968 78.277 469.796 79.8827 477.155 83.094C484.514 86.1716 490.937 90.4534 496.423 95.9395C501.909 101.426 506.191 107.848 509.269 115.208C512.48 122.567 514.086 130.395 514.086 138.691V287.818H489.398Z" fill="black"/>
<g clip-path="url(#clip0_37_2)">
<path d="M247.283 109.686L138.356 46.7963C135.761 45.299 132.566 45.299 129.971 46.7963L21.0437 109.686C18.4495 111.183 16.8511 113.952 16.8511 116.947V242.726C16.8511 245.721 18.4495 248.489 21.0437 249.987L129.971 312.876C131.269 313.625 132.716 314 134.164 314C135.612 314 137.059 313.625 138.356 312.876L247.283 249.987C249.878 248.489 251.476 245.721 251.476 242.726V116.947C251.476 113.952 249.878 111.183 247.283 109.686ZM33.6215 131.47L125.778 184.677V291.091L33.6215 237.885V131.47ZM234.706 237.885L142.549 291.091V184.677L192.82 155.653C196.83 153.337 198.204 148.209 195.889 144.199C193.573 140.188 188.445 138.814 184.435 141.13L134.164 170.154L42.0068 116.947L134.164 63.7403L234.706 121.788V237.885Z" fill="black"/>
</g>
<defs>
<clipPath id="clip0_37_2">
<rect width="268.327" height="268.327" fill="white" transform="translate(0 45.6727)"/>
</clipPath>
</defs>
</svg>
