<svg width="232" height="232" viewBox="0 0 232 232" fill="none" xmlns="http://www.w3.org/2000/svg">
<path d="M0 46.4C0 20.774 20.774 0 46.4 0H185.6C211.226 0 232 20.774 232 46.4V185.6C232 211.226 211.226 232 185.6 232H46.4C20.774 232 0 211.226 0 185.6L0 46.4Z" fill="#4F4F94"/>
<path d="M196.606 115.331C196.606 118.39 194.561 120.79 191.84 121.804C176.833 126.586 169.329 130.676 167.285 135.78C165.24 140.901 167.285 149.756 174.45 164.071C175.819 166.808 175.126 169.867 173.081 171.912C171.036 173.957 167.977 174.295 165.24 173.281C154.339 167.823 146.498 165.44 141.377 165.44C135.935 165.44 130.138 167.484 122.635 191.009C121.959 193.73 119.576 195.775 116.5 195.775C113.424 195.775 111.041 193.73 110.027 191.009C103.2 169.529 98.0959 165.44 91.2684 165.44C86.1646 165.44 78.3228 167.823 67.4224 173.281C64.6848 174.633 61.6258 173.957 59.5809 171.912C57.874 170.205 57.1811 167.146 58.5499 164.764C65.7154 150.094 68.0984 141.577 65.7154 136.456C63.6706 131.352 55.829 126.925 41.1597 122.142C38.439 121.128 36.394 118.745 36.394 115.669C36.394 112.61 38.439 110.21 41.1597 109.196C56.1671 104.414 63.6706 100.324 65.7154 94.8821C67.7603 89.7614 65.7154 80.9058 58.5499 66.5915C57.1811 64.1917 57.874 61.1328 59.9189 59.0879C61.9637 57.043 65.0227 56.367 67.4224 57.719C78.3228 63.1777 86.1646 65.5606 91.2684 65.5606C96.7271 65.5606 102.524 63.5157 110.027 39.9909C111.041 37.27 113.424 35.2251 116.5 35.2251C119.576 35.2251 121.959 37.27 122.973 39.9909C129.8 61.4708 134.904 65.5606 141.732 65.5606C146.835 65.5606 154.677 63.1777 165.578 57.719C168.315 56.367 171.374 57.0429 173.419 59.0879C175.126 61.1328 175.819 64.1917 174.45 66.5915C167.285 81.2438 164.902 89.7614 167.285 94.8821C169.329 99.9859 177.171 104.414 191.84 108.858C194.561 109.872 196.606 112.255 196.606 115.331Z" fill="white"/>
</svg>
